<svg width="1149" height="2804" viewBox="0 0 1149 2804" fill="none" xmlns="http://www.w3.org/2000/svg">
<path d="M247.588 2049.46L250.986 2027.82L261.747 2025.13L291.443 2054.07L296.113 2024.37C296.113 2024.37 274.484 2003.35 270.645 1998.69L272.653 1993.02L271.573 1983.19L262.567 1986.48L258.413 1990.75C246.403 1987.13 228.24 1980.34 228.24 1980.34L200.505 1995.08L236.323 2008.64L239.288 2020.24L221.856 2030.95L247.588 2049.46Z" fill="#FB39BB"/>
<path d="M592.81 2482.41L596.207 2460.78L606.968 2458.09L636.664 2487.02L641.334 2457.32C641.334 2457.32 619.706 2436.3 615.866 2431.64L617.874 2425.97L616.795 2416.15L607.788 2419.43L603.635 2423.71C591.625 2420.08 573.461 2413.3 573.461 2413.3L545.727 2428.03L581.544 2441.59L584.51 2453.19L567.078 2463.9L592.81 2482.41Z" fill="#FB39BB"/>
<path d="M636.668 2225.03L640.065 2203.39L650.826 2200.7L680.523 2229.63L685.192 2199.93C685.192 2199.93 663.564 2178.92 659.725 2174.25L661.732 2168.58L660.653 2158.76L651.647 2162.04L647.493 2166.32C635.483 2162.7 617.319 2155.91 617.319 2155.91L589.585 2170.65L625.402 2184.21L628.368 2195.8L610.936 2206.51L636.668 2225.03Z" fill="#FB39BB"/>
<path d="M808.304 847.986L811.702 826.351L822.463 823.658L852.159 852.592L856.829 822.894C856.829 822.894 835.2 801.876 831.361 797.212L833.368 791.543L832.289 781.719L823.283 785.001L819.129 789.278C807.119 785.657 788.956 778.87 788.956 778.87L761.221 793.608L797.038 807.168L800.004 818.764L782.572 829.471L808.304 847.986Z" fill="#FB39BB"/>
<path d="M460.339 2209.61L463.737 2187.98L474.498 2185.28L504.194 2214.22L508.864 2184.52C508.864 2184.52 487.235 2163.5 483.396 2158.84L485.404 2153.17L484.324 2143.34L475.318 2146.63L471.164 2150.9C459.154 2147.28 440.991 2140.49 440.991 2140.49L413.256 2155.23L449.074 2168.79L452.039 2180.39L434.607 2191.1L460.339 2209.61Z" fill="#FB39BB"/>
<path d="M284.896 2799.07L288.293 2777.43L299.054 2774.74L328.75 2803.67L333.42 2773.97C333.42 2773.97 311.792 2752.95 307.952 2748.29L309.96 2742.62L308.88 2732.8L299.874 2736.08L295.72 2740.36C283.71 2736.74 265.547 2729.95 265.547 2729.95L237.813 2744.69L273.63 2758.25L276.595 2769.84L259.164 2780.55L284.896 2799.07Z" fill="#FB39BB"/>
<path d="M527.068 1906.86L530.465 1885.23L541.226 1882.54L570.922 1911.47L575.592 1881.77C575.592 1881.77 553.964 1860.75 550.124 1856.09L552.132 1850.42L551.052 1840.6L542.046 1843.88L537.892 1848.16C525.882 1844.53 507.719 1837.75 507.719 1837.75L479.984 1852.49L515.802 1866.05L518.767 1877.64L501.335 1888.35L527.068 1906.86Z" fill="#FB39BB"/>
<path d="M200.533 1516.94L203.93 1495.3L214.691 1492.61L244.387 1521.54L249.057 1491.84C249.057 1491.84 227.429 1470.83 223.589 1466.16L225.597 1460.49L224.518 1450.67L215.511 1453.95L211.357 1458.23C199.347 1454.61 181.184 1447.82 181.184 1447.82L153.45 1462.56L189.267 1476.12L192.233 1487.71L174.801 1498.42L200.533 1516.94Z" fill="#FB39BB"/>
<path d="M311.499 1785.75L314.896 1764.11L325.657 1761.42L355.353 1790.35L360.023 1760.65C360.023 1760.65 338.395 1739.64 334.555 1734.97L336.562 1729.3L335.483 1719.48L326.477 1722.76L322.323 1727.04C310.313 1723.42 292.15 1716.63 292.15 1716.63L264.415 1731.37L300.233 1744.93L303.198 1756.52L285.766 1767.23L311.499 1785.75Z" fill="#FB39BB"/>
<path d="M405.643 1450.82L409.04 1429.18L419.801 1426.49L449.497 1455.42L454.167 1425.73C454.167 1425.73 432.539 1404.71 428.699 1400.04L430.707 1394.37L429.627 1384.55L420.621 1387.83L416.467 1392.11C404.457 1388.49 386.294 1381.7 386.294 1381.7L358.56 1396.44L394.377 1410L397.343 1421.6L379.91 1432.3L405.643 1450.82Z" fill="#FB39BB"/>
<path d="M347.939 789.986L351.336 768.35L362.097 765.658L391.794 794.592L396.464 764.894C396.464 764.894 374.835 743.876 370.996 739.212L373.003 733.542L371.924 723.719L362.918 727.001L358.764 731.278C346.754 727.657 328.59 720.87 328.59 720.87L300.856 735.608L336.673 749.168L339.639 760.763L322.207 771.471L347.939 789.986Z" fill="#FB39BB"/>
<path d="M1056.83 69.4992L1060.22 47.8637L1070.98 45.1715L1100.68 74.1051L1105.35 44.4071C1105.35 44.4071 1083.72 23.3889 1079.88 18.7254L1081.89 13.0557L1080.81 3.23244L1071.81 6.51403L1067.65 10.7915C1055.64 7.17043 1037.48 0.383226 1037.48 0.383226L1009.74 15.1213L1045.56 28.6809L1048.53 40.2766L1031.09 50.9839L1056.83 69.4992Z" fill="#FB39BB"/>
<path d="M47.469 1269.61L50.8662 1247.97L61.6272 1245.28L91.3235 1274.21L95.9935 1244.52C95.9935 1244.52 74.3651 1223.5 70.5255 1218.83L72.5331 1213.16L71.4539 1203.34L62.4475 1206.62L58.2936 1210.9C46.2836 1207.28 28.1202 1200.49 28.1202 1200.49L0.386004 1215.23L36.2031 1228.79L39.1689 1240.38L21.737 1251.09L47.469 1269.61Z" fill="#FB39BB"/>
<path d="M971.185 692.923L974.582 671.287L985.343 668.595L1015.04 697.528L1019.71 667.83C1019.71 667.83 998.081 646.812 994.241 642.149L996.249 636.479L995.17 626.656L986.163 629.937L982.009 634.215C969.999 630.594 951.836 623.807 951.836 623.807L924.102 638.545L959.919 652.104L962.885 663.7L945.453 674.407L971.185 692.923Z" fill="#FB39BB"/>
<path d="M1099.61 334.506L1103.01 312.871L1113.77 310.178L1143.47 339.112L1148.14 309.414C1148.14 309.414 1126.51 288.396 1122.67 283.732L1124.68 278.063L1123.6 268.239L1114.59 271.521L1110.44 275.798C1098.43 272.177 1080.26 265.39 1080.26 265.39L1052.53 280.128L1088.35 293.688L1091.31 305.284L1073.88 315.991L1099.61 334.506Z" fill="#FB39BB"/>
<path d="M644.695 777.381L648.092 755.745L658.853 753.053L688.55 781.986L693.22 752.288C693.22 752.288 671.591 731.27 667.752 726.607L669.759 720.937L668.68 711.114L659.674 714.395L655.52 718.673C643.51 715.052 625.346 708.265 625.346 708.265L597.612 723.003L633.429 736.562L636.395 748.158L618.963 758.865L644.695 777.381Z" fill="#FB39BB"/>
<path d="M871.757 378.805L875.154 357.17L885.915 354.478L915.611 383.411L920.281 353.713C920.281 353.713 898.653 332.695 894.813 328.031L896.821 322.362L895.742 312.538L886.735 315.82L882.581 320.098C870.571 316.476 852.408 309.689 852.408 309.689L824.674 324.427L860.491 337.987L863.457 349.583L846.025 360.29L871.757 378.805Z" fill="#FB39BB"/>
<path d="M379.886 2428L383.283 2406.36L394.044 2403.67L423.741 2432.61L428.411 2402.91C428.411 2402.91 406.782 2381.89 402.943 2377.23L404.95 2371.56L403.871 2361.73L394.865 2365.02L390.711 2369.29C378.701 2365.67 360.537 2358.88 360.537 2358.88L332.803 2373.62L368.62 2387.18L371.586 2398.78L354.154 2409.48L379.886 2428Z" fill="#FB39BB"/>
<path d="M340.711 1119.99L344.109 1098.35L354.87 1095.66L384.566 1124.59L389.236 1094.9C389.236 1094.9 367.608 1073.88 363.768 1069.21L365.776 1063.54L364.696 1053.72L355.69 1057L351.536 1061.28C339.526 1057.66 321.363 1050.87 321.363 1050.87L293.628 1065.61L329.446 1079.17L332.411 1090.77L314.979 1101.47L340.711 1119.99Z" fill="#FB39BB"/>
<path d="M540.953 950.971L544.35 929.336L555.111 926.643L584.807 955.577L589.477 925.879C589.477 925.879 567.849 904.861 564.009 900.197L566.017 894.528L564.938 884.704L555.931 887.986L551.777 892.263C539.767 888.642 521.604 881.855 521.604 881.855L493.87 896.593L529.687 910.153L532.653 921.748L515.221 932.456L540.953 950.971Z" fill="#FB39BB"/>
<path d="M603.973 1244.24L607.371 1222.61L618.132 1219.92L647.828 1248.85L652.498 1219.15C652.498 1219.15 630.869 1198.13 627.03 1193.47L629.037 1187.8L627.958 1177.98L618.952 1181.26L614.798 1185.54C602.788 1181.91 584.625 1175.13 584.625 1175.13L556.89 1189.87L592.707 1203.42L595.673 1215.02L578.241 1225.73L603.973 1244.24Z" fill="#FB39BB"/>
</svg>
